<svg xmlns="http://www.w3.org/2000/svg" width="206" height="67" fill="none" viewBox="0 0 206 67">
  <ellipse cx="21.896" cy="21.914" fill="url(#a)" rx="21.896" ry="21.914" transform="matrix(.68535 -.72822 .7361 .67688 0 31.89)"/>
  <ellipse cx="39.047" cy="26.168" fill="#fff" rx="2.297" ry="2.27"/>
  <mask id="b" fill="#fff">
    <path d="M65.74 27h-2.26V13.6h2.1L71 21.4l1.32 2.1-.14-2.54V13.6h2.26V27h-2.08l-5.56-7.92-1.22-1.9.16 2.44V27Zm15.455.2c-2.9 0-4.8-2.02-4.8-5.06 0-3.06 1.9-5.08 4.64-5.08 2.92 0 4.54 1.94 4.54 4.64 0 .36-.04.78-.08.98h-6.96c.12 1.74 1.14 2.68 2.68 2.68 1.7 0 2.46-.88 2.82-1.7l1.38 1.44c-.74 1.12-2.06 2.1-4.22 2.1Zm-.16-8.34c-1.38 0-2.3.8-2.48 2.38h5c-.16-1.54-1.04-2.38-2.52-2.38Zm8.783 11.86h-2.24V17.26h2.24v2.6c.32-1.52 1.18-2.82 3.12-2.82 2.36 0 3.88 1.94 3.88 5.08s-1.52 5.08-3.92 5.08c-1.94 0-2.76-1.3-3.08-2.8v6.32Zm0-8c0 1.6.66 2.66 2.24 2.66 1.4 0 2.46-1.06 2.46-3.26 0-2.2-1.06-3.26-2.46-3.26-1.58 0-2.24 1.06-2.24 2.66v1.2Zm12.159 4.5c-1.84 0-2.9-1.16-2.9-2.88V19h-1.52v-1.74h1.52v-1.18l2.24-1.42v2.6h2.98V19h-2.98v4.8c0 1.06.5 1.32 1.16 1.32.76 0 1.32-.62 1.6-1.18l.7 2c-.42.62-1.38 1.28-2.8 1.28Zm7.768-.02c-2.8 0-4.72-2.04-4.72-5.06 0-3.04 1.92-5.08 4.72-5.08 2.84 0 4.76 2.04 4.76 5.08 0 3.02-1.92 5.06-4.76 5.06Zm.02-1.86c1.46 0 2.46-.96 2.46-3.2 0-2.26-1-3.22-2.46-3.22-1.44 0-2.44.96-2.44 3.22 0 2.24 1 3.2 2.44 3.2Zm8.901 1.66h-2.24v-9.74h2.24v2.66c.36-1.54 1.36-2.86 3.3-2.86 1.9 0 3.06 1.14 3.06 3.16V27h-2.26v-6.1c0-1.2-.4-2.02-1.9-2.02-1.64 0-2.2 1.06-2.2 2.66V27Zm12.939.2c-2.9 0-4.8-2.02-4.8-5.06 0-3.06 1.9-5.08 4.64-5.08 2.92 0 4.54 1.94 4.54 4.64 0 .36-.04.78-.08.98h-6.96c.12 1.74 1.14 2.68 2.68 2.68 1.7 0 2.46-.88 2.82-1.7l1.38 1.44c-.74 1.12-2.06 2.1-4.22 2.1Zm-.16-8.34c-1.38 0-2.3.8-2.48 2.38h5c-.16-1.54-1.04-2.38-2.52-2.38Z"/>
  </mask>
  <path fill="#000" d="M65.74 27h-2.26V13.6h2.1L71 21.4l1.32 2.1-.14-2.54V13.6h2.26V27h-2.08l-5.56-7.92-1.22-1.9.16 2.44V27Zm15.455.2c-2.9 0-4.8-2.02-4.8-5.06 0-3.06 1.9-5.08 4.64-5.08 2.92 0 4.54 1.94 4.54 4.64 0 .36-.04.78-.08.98h-6.96c.12 1.74 1.14 2.68 2.68 2.68 1.7 0 2.46-.88 2.82-1.7l1.38 1.44c-.74 1.12-2.06 2.1-4.22 2.1Zm-.16-8.34c-1.38 0-2.3.8-2.48 2.38h5c-.16-1.54-1.04-2.38-2.52-2.38Zm8.783 11.86h-2.24V17.26h2.24v2.6c.32-1.52 1.18-2.82 3.12-2.82 2.36 0 3.88 1.94 3.88 5.08s-1.52 5.08-3.92 5.08c-1.94 0-2.76-1.3-3.08-2.8v6.32Zm0-8c0 1.6.66 2.66 2.24 2.66 1.4 0 2.46-1.06 2.46-3.26 0-2.2-1.06-3.26-2.46-3.26-1.58 0-2.24 1.06-2.24 2.66v1.2Zm12.159 4.5c-1.84 0-2.9-1.16-2.9-2.88V19h-1.52v-1.74h1.52v-1.18l2.24-1.42v2.6h2.98V19h-2.98v4.8c0 1.06.5 1.32 1.16 1.32.76 0 1.32-.62 1.6-1.18l.7 2c-.42.62-1.38 1.28-2.8 1.28Zm7.768-.02c-2.8 0-4.72-2.04-4.72-5.06 0-3.04 1.92-5.08 4.72-5.08 2.84 0 4.76 2.04 4.76 5.08 0 3.02-1.92 5.06-4.76 5.06Zm.02-1.86c1.46 0 2.46-.96 2.46-3.2 0-2.26-1-3.22-2.46-3.22-1.44 0-2.44.96-2.44 3.22 0 2.24 1 3.2 2.44 3.2Zm8.901 1.66h-2.24v-9.74h2.24v2.66c.36-1.54 1.36-2.86 3.3-2.86 1.9 0 3.06 1.14 3.06 3.16V27h-2.26v-6.1c0-1.2-.4-2.02-1.9-2.02-1.64 0-2.2 1.06-2.2 2.66V27Zm12.939.2c-2.9 0-4.8-2.02-4.8-5.06 0-3.06 1.9-5.08 4.64-5.08 2.92 0 4.54 1.94 4.54 4.64 0 .36-.04.78-.08.98h-6.96c.12 1.74 1.14 2.68 2.68 2.68 1.7 0 2.46-.88 2.82-1.7l1.38 1.44c-.74 1.12-2.06 2.1-4.22 2.1Zm-.16-8.34c-1.38 0-2.3.8-2.48 2.38h5c-.16-1.54-1.04-2.38-2.52-2.38Z"/>
  <path fill="#fff" d="M65.74 27v.2h.2V27h-.2Zm-2.26 0h-.2v.2h.2V27Zm0-13.4v-.2h-.2v.2h.2Zm2.1 0 .164-.114-.06-.086h-.104v.2ZM71 21.4l.17-.106-.006-.008L71 21.4Zm1.32 2.1-.17.106.412.655-.042-.772-.2.011Zm-.14-2.54h-.2v.011l.2-.011Zm0-7.36v-.2h-.2v.2h.2Zm2.26 0h.2v-.2h-.2v.2Zm0 13.4v.2h.2V27h-.2Zm-2.08 0-.163.115.06.085h.103V27Zm-5.56-7.92-.168.108.004.007.164-.115Zm-1.22-1.9.168-.108-.367.121.2-.013Zm.16 2.44h.2v-.013l-.2.013Zm0 7.38v-.2h-2.26v.4h2.26V27Zm-2.26 0h.2V13.6h-.4V27h.2Zm0-13.4v.2h2.1v-.4h-2.1v.2Zm2.1 0-.164.114 5.42 7.8L71 21.4l.164-.114-5.42-7.8-.164.114ZM71 21.4l-.17.106 1.32 2.1.17-.106.17-.106-1.32-2.1-.17.106Zm1.32 2.1.2-.011-.14-2.54-.2.011-.2.011.14 2.54.2-.011Zm-.14-2.54h.2V13.6h-.4v7.36h.2Zm0-7.36v.2h2.26v-.4h-2.26v.2Zm2.26 0h-.2V27h.4V13.6h-.2Zm0 13.4v-.2h-2.08v.4h2.08V27Zm-2.08 0 .164-.115-5.56-7.92-.164.115-.163.115 5.56 7.92.163-.115Zm-5.56-7.92.168-.108-1.22-1.9-.168.108-.168.108 1.22 1.9.168-.108Zm-1.22-1.9-.2.013.16 2.44.2-.013.2-.013-.16-2.44-.2.013Zm.16 2.44h-.2V27h.4v-7.38h-.2Zm19.755 3.06v.2h.164l.032-.16-.196-.04Zm-6.96 0v-.2h-.214l.015.214.2-.014Zm5.5.98.145-.138-.208-.217-.12.275.183.08Zm1.38 1.44.167.11.088-.133-.11-.115-.145.138Zm-6.86-3.86-.198-.023-.026.223h.224v-.2Zm5 0v.2h.222l-.023-.22-.199.02Zm-2.36 5.96V27c-1.401 0-2.546-.487-3.342-1.328-.796-.841-1.258-2.054-1.258-3.532h-.4c0 1.562.489 2.879 1.368 3.808.88.929 2.134 1.452 3.632 1.452v-.2Zm-4.8-5.06h.2c0-1.489.462-2.707 1.24-3.552.777-.843 1.882-1.328 3.2-1.328v-.4c-1.421 0-2.636.525-3.494 1.457-.857.93-1.346 2.252-1.346 3.823h.2Zm4.64-5.08v.2c1.414 0 2.493.468 3.22 1.244.728.778 1.12 1.885 1.12 3.196h.4c0-1.39-.417-2.602-1.229-3.47-.813-.868-2.004-1.37-3.51-1.37v.2Zm4.54 4.64h-.2a5.8 5.8 0 0 1-.076.94l.196.04.196.04a6.19 6.19 0 0 0 .084-1.02h-.2Zm-.08.98v-.2h-6.96v.4h6.96v-.2Zm-6.96 0-.2.014c.063.906.362 1.627.868 2.122.507.495 1.2.744 2.012.744v-.4c-.728 0-1.314-.221-1.732-.63-.42-.41-.69-1.03-.748-1.864l-.2.014Zm2.68 2.68v.2c.887 0 1.544-.23 2.03-.58.484-.35.783-.807.973-1.24l-.183-.08-.183-.08c-.17.387-.43.78-.841 1.075-.41.295-.982.505-1.796.505v.2Zm2.82-1.7-.144.138 1.38 1.44.144-.138.145-.138-1.38-1.44-.145.138Zm1.38 1.44-.167-.11c-.705 1.067-1.964 2.01-4.053 2.01v.4c2.232 0 3.613-1.017 4.387-2.19l-.167-.11Zm-4.38-6.24v-.2c-.73 0-1.357.212-1.826.651-.469.439-.759 1.083-.852 1.906l.198.023.199.023c.086-.757.346-1.303.728-1.66.38-.355.903-.543 1.553-.543v-.2Zm-2.48 2.38v.2h5v-.4h-5v.2Zm5 0 .2-.02c-.084-.803-.358-1.448-.827-1.893-.47-.445-1.114-.667-1.893-.667v.4c.702 0 1.238.198 1.618.558.38.36.627.905.703 1.643l.2-.021Zm6.263 9.48v.2h.2v-.2h-.2Zm-2.24 0h-.2v.2h.2v-.2Zm0-13.46v-.2h-.2v.2h.2Zm2.24 0h.2v-.2h-.2v.2Zm0 2.6h-.2l.396.041-.196-.041Zm0 4.54.196-.042-.396.042h.2Zm0 6.32v-.2h-2.24v.4h2.24v-.2Zm-2.24 0h.2V17.26h-.4v13.46h.2Zm0-13.46v.2h2.24v-.4h-2.24v.2Zm2.24 0h-.2v2.6h.4v-2.6h-.2Zm0 2.6.196.041c.156-.739.439-1.404.9-1.882.457-.473 1.104-.779 2.024-.779v-.4c-1.02 0-1.773.344-2.31.901-.534.552-.84 1.297-1.005 2.078l.195.041Zm3.12-2.82v.2c1.12 0 2.03.457 2.667 1.284.64.833 1.013 2.056 1.013 3.596h.4c0-1.6-.386-2.917-1.096-3.84-.714-.927-1.743-1.44-2.984-1.44v.2Zm3.88 5.08h-.2c0 1.54-.373 2.763-1.018 3.595-.64.827-1.561 1.285-2.702 1.285v.4c1.26 0 2.3-.512 3.019-1.44.715-.923 1.101-2.24 1.101-3.84h-.2Zm-3.92 5.08V27c-.92 0-1.556-.306-2.002-.775-.453-.476-.726-1.136-.882-1.867l-.196.042-.195.042c.164.769.46 1.509.983 2.058.529.556 1.273.9 2.292.9v-.2Zm-3.08-2.8h-.2v6.32h.4V24.4h-.2Zm0-1.68h-.2c0 .823.17 1.539.57 2.053.408.523 1.032.807 1.87.807v-.4c-.74 0-1.237-.246-1.554-.653-.325-.416-.486-1.03-.486-1.807h-.2Zm2.24 2.66v.2c.755 0 1.429-.288 1.91-.879.478-.586.75-1.451.75-2.581h-.4c0 1.07-.257 1.835-.66 2.329-.398.489-.954.731-1.6.731v.2Zm2.46-3.26h.2c0-1.13-.272-1.995-.75-2.581-.481-.591-1.155-.879-1.91-.879v.4c.646 0 1.202.242 1.6.731.403.494.66 1.259.66 2.329h.2Zm-2.46-3.26v-.2c-.838 0-1.462.284-1.87.807-.4.514-.57 1.23-.57 2.053h.4c0-.777.162-1.391.486-1.807.317-.407.813-.653 1.554-.653v-.2Zm-2.24 2.66h-.2v1.2h.4v-1.2h-.2Zm9.26-2.52h.2v-.2h-.2v.2Zm-1.52 0h-.2v.2h.2V19Zm0-1.74v-.2h-.2v.2h.2Zm1.52 0v.2h.2v-.2h-.2Zm0-1.18-.108-.169-.093.059v.11h.2Zm2.239-1.42h.2v-.364l-.307.195.107.169Zm0 2.6h-.2v.2h.2v-.2Zm2.98 0h.2v-.2h-.2v.2Zm0 1.74v.2h.2V19h-.2Zm-2.98 0v-.2h-.2v.2h.2Zm2.76 4.94.189-.066-.156-.446-.212.423.179.089Zm.7 2 .166.112.056-.083-.033-.095-.189.066Zm-2.8 1.28v-.2c-.877 0-1.546-.275-1.997-.735-.451-.46-.703-1.126-.703-1.945h-.4c0 .901.279 1.675.818 2.225.539.55 1.319.855 2.282.855v-.2Zm-2.9-2.88h.2V19h-.4v5.34h.2Zm0-5.34v-.2h-1.52v.4h1.52V19Zm-1.52 0h.2v-1.74h-.4V19h.2Zm0-1.74v.2h1.52v-.4h-1.52v.2Zm1.52 0h.2v-1.18h-.4v1.18h.2Zm0-1.18.107.169 2.24-1.42-.107-.169-.107-.169-2.24 1.42.107.169Zm2.24-1.42h-.2v2.6h.4v-2.6h-.2Zm0 2.6v.2h2.98v-.4h-2.98v.2Zm2.98 0h-.2V19h.4v-1.74h-.2Zm0 1.74v-.2h-2.98v.4h2.98V19Zm-2.98 0h-.2v4.8h.4V19h-.2Zm0 4.8h-.2c0 .557.131.952.395 1.202.262.25.615.318.965.318v-.4c-.309 0-.536-.062-.689-.207-.152-.145-.271-.41-.271-.913h-.2Zm1.16 1.32v.2c.875 0 1.487-.707 1.779-1.29l-.179-.09-.179-.09c-.268.537-.775 1.07-1.421 1.07v.2Zm1.6-1.18-.188.066.7 2 .188-.066.189-.066-.7-2-.189.066Zm.7 2-.165-.112c-.381.562-1.278 1.192-2.635 1.192v.4c1.483 0 2.507-.69 2.966-1.368l-.166-.112Zm4.968 1.26V27c-1.349 0-2.475-.49-3.264-1.334-.79-.845-1.256-2.059-1.256-3.526h-.4c0 1.553.494 2.869 1.364 3.8.871.93 2.105 1.46 3.556 1.46v-.2Zm-4.72-5.06h.2c0-1.478.466-2.696 1.256-3.544.789-.846 1.915-1.336 3.264-1.336v-.4c-1.451 0-2.686.53-3.556 1.464-.87.932-1.364 2.254-1.364 3.816h.2Zm4.72-5.08v.2c1.37 0 2.505.49 3.299 1.337.795.847 1.261 2.065 1.261 3.543h.4c0-1.562-.494-2.884-1.369-3.817-.877-.934-2.121-1.463-3.591-1.463v.2Zm4.76 5.08h-.2c0 1.467-.466 2.68-1.261 3.526-.794.843-1.929 1.334-3.299 1.334v.4c1.47 0 2.714-.53 3.591-1.46.875-.93 1.369-2.247 1.369-3.8h-.2Zm-4.74 3.2v.2c.776 0 1.453-.257 1.931-.832.473-.57.729-1.422.729-2.568h-.4c0 1.094-.245 1.841-.636 2.312-.387.465-.94.688-1.624.688v.2Zm2.46-3.2h.2c0-1.156-.255-2.013-.729-2.585-.478-.578-1.155-.835-1.931-.835v.4c.683 0 1.236.223 1.623.69.392.473.637 1.226.637 2.33h.2Zm-2.46-3.22v-.2c-.767 0-1.439.258-1.915.835-.47.572-.725 1.43-.725 2.585h.4c0-1.104.245-1.857.634-2.33.385-.468.933-.69 1.606-.69v-.2Zm-2.44 3.22h-.2c0 1.146.255 1.998.726 2.567.475.575 1.147.833 1.914.833v-.4c-.673 0-1.221-.222-1.606-.688-.39-.47-.634-1.218-.634-2.312h-.2ZM118.666 27v.2h.2V27h-.2Zm-2.24 0h-.2v.2h.2V27Zm0-9.74v-.2h-.2v.2h.2Zm2.24 0h.2v-.2h-.2v.2Zm0 2.66h-.2l.395.045-.195-.045Zm6.36 7.08v.2h.2V27h-.2Zm-2.26 0h-.2v.2h.2V27Zm-4.1 0v-.2h-2.24v.4h2.24V27Zm-2.24 0h.2v-9.74h-.4V27h.2Zm0-9.74v.2h2.24v-.4h-2.24v.2Zm2.24 0h-.2v2.66h.4v-2.66h-.2Zm0 2.66.195.045c.174-.744.499-1.42 1.002-1.91.499-.484 1.183-.795 2.103-.795v-.4c-1.02 0-1.805.349-2.382.91-.572.556-.927 1.309-1.113 2.105l.195.045Zm3.3-2.86v.2c.91 0 1.619.272 2.1.763.482.49.76 1.225.76 2.197h.4c0-1.048-.301-1.893-.875-2.478-.573-.584-1.395-.882-2.385-.882v.2Zm3.06 3.16h-.2V27h.4v-6.78h-.2Zm0 6.78v-.2h-2.26v.4h2.26V27Zm-2.26 0h.2v-6.1h-.4V27h.2Zm0-6.1h.2c0-.615-.101-1.177-.432-1.586-.339-.418-.882-.634-1.668-.634v.4c.715 0 1.121.194 1.357.486.244.3.343.749.343 1.334h.2Zm-1.9-2.02v-.2c-.867 0-1.484.283-1.876.81-.382.517-.524 1.233-.524 2.05h.4c0-.783.138-1.397.446-1.81.298-.403.781-.65 1.554-.65v-.2Zm-2.2 2.66h-.2V27h.4v-5.46h-.2Zm17.239 1.14v.2h.164l.033-.16-.197-.04Zm-6.96 0v-.2h-.214l.015.214.199-.014Zm5.5.98.145-.138-.207-.217-.121.275.183.08Zm1.38 1.44.167.11.088-.133-.11-.115-.145.138Zm-6.86-3.86-.198-.023-.026.223h.224v-.2Zm5 0v.2h.222l-.023-.22-.199.02Zm-2.36 5.96V27c-1.401 0-2.546-.487-3.342-1.328-.796-.841-1.258-2.054-1.258-3.532h-.4c0 1.562.489 2.879 1.368 3.808.879.929 2.134 1.452 3.632 1.452v-.2Zm-4.8-5.06h.2c0-1.489.462-2.707 1.24-3.552.777-.843 1.882-1.328 3.2-1.328v-.4c-1.421 0-2.636.525-3.494 1.457-.857.93-1.346 2.252-1.346 3.823h.2Zm4.64-5.08v.2c1.414 0 2.493.468 3.219 1.244.729.778 1.121 1.885 1.121 3.196h.4c0-1.39-.417-2.602-1.229-3.47-.813-.868-2.004-1.37-3.511-1.37v.2Zm4.54 4.64h-.2a5.8 5.8 0 0 1-.076.94l.196.04.197.04c.043-.217.083-.65.083-1.02h-.2Zm-.08.98v-.2h-6.96v.4h6.96v-.2Zm-6.96 0-.199.014c.062.906.361 1.627.867 2.122.507.495 1.201.744 2.012.744v-.4c-.728 0-1.314-.221-1.732-.63-.419-.41-.69-1.03-.748-1.864l-.2.014Zm2.68 2.68v.2c.887 0 1.544-.23 2.03-.58a2.97 2.97 0 0 0 .974-1.24l-.184-.08-.183-.08c-.17.387-.43.78-.841 1.075-.409.295-.982.505-1.796.505v.2Zm2.82-1.7-.144.138 1.38 1.44.144-.138.145-.138-1.38-1.44-.145.138Zm1.38 1.44-.166-.11c-.706 1.067-1.965 2.01-4.054 2.01v.4c2.232 0 3.613-1.017 4.387-2.19l-.167-.11Zm-4.38-6.24v-.2c-.729 0-1.357.212-1.826.651-.469.439-.758 1.083-.852 1.906l.198.023.199.023c.086-.757.347-1.303.728-1.66.381-.355.903-.543 1.553-.543v-.2Zm-2.48 2.38v.2h5v-.4h-5v.2Zm5 0 .199-.02c-.083-.803-.357-1.448-.826-1.893-.47-.445-1.114-.667-1.893-.667v.4c.702 0 1.238.198 1.618.558.381.36.627.905.704 1.643l.198-.021Z" mask="url(#b)"/>
  <mask id="c" fill="#fff">
    <path d="M66.58 50h-2.26V36.6h2.78l2.88 5.88 1.32 3.42 1.34-3.42 2.88-5.88h2.76V50h-2.26v-6.3l.28-4.42-1.54 3.84-2.32 4.62h-2.28l-2.32-4.62-1.58-3.84.32 4.42V50Zm17.299.2c-1.88 0-3.04-1.14-3.04-3.16v-6.78h2.24v6.1c0 1.2.4 2.02 1.9 2.02 1.64 0 2.2-1.06 2.2-2.66v-5.46h2.26V50h-2.26v-2.66c-.36 1.54-1.36 2.86-3.3 2.86Zm11.626 0c-2.08 0-3.98-.84-4.72-2.38l1.32-1.4c.54.98 1.74 1.98 3.48 1.98.96 0 1.58-.34 1.58-1.04 0-.72-.74-.96-1.82-1.22l-1.3-.32c-1.54-.36-2.96-1.04-2.96-2.82 0-1.82 1.46-2.92 3.7-2.92 2.08 0 3.54 1 4.14 2.1l-1.32 1.4c-.68-1.08-1.72-1.72-2.98-1.72-.86 0-1.44.36-1.44 1.02 0 .7.52.96 1.84 1.3l1.18.3c2.18.56 2.98 1.44 2.98 2.84 0 1.92-1.62 2.88-3.68 2.88Zm7.692-11.32h-2.24V36.6h2.24v2.28Zm0 11.12h-2.24v-9.74h2.24V50Zm6.59.2c-2.9 0-4.72-2.04-4.72-5.06 0-3.04 1.82-5.08 4.72-5.08 2.44 0 3.98 1.38 4.5 3.22l-2.02 1c-.22-1.4-.94-2.34-2.44-2.34-1.54 0-2.48 1.14-2.48 3.2 0 2.04.94 3.18 2.48 3.18 1.52 0 2.22-.94 2.44-2.34l2.02 1c-.52 1.84-2.06 3.22-4.5 3.22Z"/>
  </mask>
  <path fill="#000" d="M66.58 50h-2.26V36.6h2.78l2.88 5.88 1.32 3.42 1.34-3.42 2.88-5.88h2.76V50h-2.26v-6.3l.28-4.42-1.54 3.84-2.32 4.62h-2.28l-2.32-4.62-1.58-3.84.32 4.42V50Zm17.299.2c-1.88 0-3.04-1.14-3.04-3.16v-6.78h2.24v6.1c0 1.2.4 2.02 1.9 2.02 1.64 0 2.2-1.06 2.2-2.66v-5.46h2.26V50h-2.26v-2.66c-.36 1.54-1.36 2.86-3.3 2.86Zm11.626 0c-2.08 0-3.98-.84-4.72-2.38l1.32-1.4c.54.98 1.74 1.98 3.48 1.98.96 0 1.58-.34 1.58-1.04 0-.72-.74-.96-1.82-1.22l-1.3-.32c-1.54-.36-2.96-1.04-2.96-2.82 0-1.82 1.46-2.92 3.7-2.92 2.08 0 3.54 1 4.14 2.1l-1.32 1.4c-.68-1.08-1.72-1.72-2.98-1.72-.86 0-1.44.36-1.44 1.02 0 .7.52.96 1.84 1.3l1.18.3c2.18.56 2.98 1.44 2.98 2.84 0 1.92-1.62 2.88-3.68 2.88Zm7.692-11.32h-2.24V36.6h2.24v2.28Zm0 11.12h-2.24v-9.74h2.24V50Zm6.59.2c-2.9 0-4.72-2.04-4.72-5.06 0-3.04 1.82-5.08 4.72-5.08 2.44 0 3.98 1.38 4.5 3.22l-2.02 1c-.22-1.4-.94-2.34-2.44-2.34-1.54 0-2.48 1.14-2.48 3.2 0 2.04.94 3.18 2.48 3.18 1.52 0 2.22-.94 2.44-2.34l2.02 1c-.52 1.84-2.06 3.22-4.5 3.22Z"/>
  <path fill="#fff" d="M66.58 50v.2h.2V50h-.2Zm-2.26 0h-.2v.2h.2V50Zm0-13.4v-.2h-.2v.2h.2Zm2.78 0 .18-.088-.055-.112H67.1v.2Zm2.88 5.88.187-.072-.004-.008-.003-.008-.18.088Zm1.32 3.42-.187.072.186.48.187-.479-.186-.073Zm1.34-3.42-.18-.088-.003.007-.003.008.186.073Zm2.88-5.88v-.2h-.125l-.055.112.18.088Zm2.76 0h.2v-.2h-.2v.2Zm0 13.4v.2h.2V50h-.2Zm-2.26 0h-.2v.2h.2V50Zm0-6.3-.2-.013v.013h.2Zm.28-4.42.2.013-.386-.087.186.074Zm-1.54 3.84.179.09.004-.008.003-.008-.186-.074Zm-2.32 4.62v.2h.123l.056-.11-.179-.09Zm-2.28 0-.179.09.056.11h.123v-.2Zm-2.32-4.62-.185.076.003.007.003.007.179-.09Zm-1.58-3.84.185-.076-.384.09.199-.014Zm.32 4.42h.2v-.014l-.2.014Zm0 6.3v-.2h-2.26v.4h2.26V50Zm-2.26 0h.2V36.6h-.4V50h.2Zm0-13.4v.2h2.78v-.4h-2.78v.2Zm2.78 0-.18.088 2.88 5.88.18-.088.18-.088-2.88-5.88-.18.088Zm2.88 5.88-.187.072 1.32 3.42.187-.072.187-.072-1.32-3.42-.187.072Zm1.32 3.42.186.073 1.34-3.42-.186-.073-.186-.073-1.34 3.42.186.073Zm1.34-3.42.18.088 2.88-5.88-.18-.088-.18-.088-2.88 5.88.18.088Zm2.88-5.88v.2h2.76v-.4h-2.76v.2Zm2.76 0h-.2V50h.4V36.6h-.2Zm0 13.4v-.2h-2.26v.4h2.26V50Zm-2.26 0h.2v-6.3h-.4V50h.2Zm0-6.3.2.013.28-4.42-.2-.013-.2-.013-.28 4.42.2.013Zm.28-4.42-.186-.074-1.54 3.84.186.074.186.074 1.54-3.84-.186-.074Zm-1.54 3.84-.179-.09-2.32 4.62.179.09.179.09 2.32-4.62-.179-.09Zm-2.32 4.62v-.2h-2.28v.4h2.28v-.2Zm-2.28 0 .179-.09-2.32-4.62-.179.09-.179.09 2.32 4.62.179-.09Zm-2.32-4.62.185-.076-1.58-3.84-.185.076-.185.076 1.58 3.84.185-.076Zm-1.58-3.84-.2.014.32 4.42.2-.014.2-.014-.32-4.42-.2.014Zm.32 4.42h-.2V50h.4v-6.3h-.2Zm14.259-3.44v-.2h-.2v.2h.2Zm2.24 0h.2v-.2h-.2v.2Zm4.1 0v-.2h-.2v.2h.2Zm2.26 0h.2v-.2h-.2v.2Zm0 9.74v.2h.2V50h-.2Zm-2.26 0h-.2v.2h.2V50Zm0-2.66h.2l-.395-.046.195.046Zm-3.3 2.86V50c-.9 0-1.603-.272-2.082-.762-.48-.491-.758-1.226-.758-2.198h-.4c0 1.048.301 1.893.872 2.477.57.585 1.387.883 2.368.883v-.2Zm-3.04-3.16h.2v-6.78h-.4v6.78h.2Zm0-6.78v.2h2.24v-.4h-2.24v.2Zm2.24 0h-.2v6.1h.4v-6.1h-.2Zm0 6.1h-.2c0 .615.1 1.177.432 1.586.338.418.882.634 1.668.634v-.4c-.715 0-1.121-.194-1.357-.486-.244-.3-.343-.749-.343-1.334h-.2Zm1.9 2.02v.2c.867 0 1.484-.283 1.875-.81.383-.517.525-1.233.525-2.05h-.4c0 .783-.138 1.397-.446 1.81-.298.403-.781.65-1.554.65v.2Zm2.2-2.66h.2v-5.46h-.4v5.46h.2Zm0-5.46v.2h2.26v-.4h-2.26v.2Zm2.26 0h-.2V50h.4v-9.74h-.2Zm0 9.74v-.2h-2.26v.4h2.26V50Zm-2.26 0h.2v-2.66h-.4V50h.2Zm0-2.66-.195-.046c-.174.745-.5 1.422-1.002 1.91-.499.485-1.183.796-2.103.796v.4c1.02 0 1.805-.349 2.382-.91.572-.556.927-1.309 1.113-2.105l-.195-.045Zm3.606.48-.146-.137-.094.1.06.124.18-.087Zm1.32-1.4.175-.096-.133-.24-.188.199.146.137Zm3.24-.28-.048.194.048-.194Zm-1.3-.32.047-.194h-.002l-.045.194Zm4.88-3.64.145.137.1-.105-.07-.128-.175.096Zm-1.32 1.4-.17.107.138.218.177-.188-.145-.137Zm-2.58.6-.05.194.05-.194Zm1.18.3.05-.194h-.001l-.05.194Zm-.7 5.72V50c-2.04 0-3.847-.824-4.54-2.267l-.18.087-.18.087c.786 1.637 2.78 2.493 4.9 2.493v-.2Zm-4.72-2.38.145.137 1.32-1.4-.145-.137-.146-.137-1.32 1.4.146.137Zm1.32-1.4-.175.096c.57 1.035 1.832 2.084 3.655 2.084v-.4c-1.657 0-2.795-.951-3.305-1.877l-.175.097Zm3.48 1.98v.2c.498 0 .936-.087 1.256-.288.332-.208.524-.531.524-.952h-.4c0 .28-.118.476-.337.613-.23.144-.582.227-1.043.227v.2Zm1.58-1.04h.2a.994.994 0 0 0-.167-.57 1.28 1.28 0 0 0-.44-.386c-.348-.2-.83-.33-1.367-.458l-.046.194-.047.194c.544.131.971.251 1.263.417a.886.886 0 0 1 .305.263.595.595 0 0 1 .099.346h.2Zm-1.82-1.22.047-.194-1.3-.32-.047.194-.048.194 1.3.32.048-.194Zm-1.3-.32.045-.195c-.76-.178-1.466-.43-1.978-.839-.502-.4-.827-.96-.827-1.786h-.4c0 .953.384 1.625.977 2.099.583.465 1.358.734 2.137.916l.046-.195ZM91.085 43h.2c0-.85.338-1.522.933-1.985.6-.467 1.477-.735 2.567-.735v-.4c-1.15 0-2.123.282-2.813.82-.696.542-1.087 1.33-1.087 2.3h.2Zm3.7-2.92v.2c2.016 0 3.404.968 3.964 1.996l.176-.096.175-.096c-.64-1.172-2.172-2.204-4.315-2.204v.2Zm4.14 2.1-.146-.137-1.32 1.4.146.137.145.137 1.32-1.4-.145-.137Zm-1.32 1.4.169-.107c-.712-1.13-1.813-1.813-3.15-1.813v.4c1.184 0 2.164.598 2.811 1.627l.17-.107Zm-2.98-1.72v-.2c-.454 0-.859.095-1.156.297a1.077 1.077 0 0 0-.484.923h.4c0-.262.11-.456.31-.592.208-.142.524-.228.93-.228v-.2Zm-1.44 1.02h-.2c0 .2.037.382.126.546.088.163.22.295.388.406.327.216.82.373 1.476.542l.05-.194.05-.194c-.664-.17-1.092-.314-1.355-.488a.746.746 0 0 1-.258-.263.728.728 0 0 1-.077-.355h-.2Zm1.84 1.3-.05.194 1.18.3.05-.194.049-.194-1.18-.3-.05.194Zm1.18.3-.05.194c1.076.276 1.781.625 2.217 1.053.427.421.613.936.613 1.593h.4c0-.743-.215-1.368-.733-1.877-.509-.502-1.293-.873-2.398-1.157l-.05.194Zm2.98 2.84h-.2c0 .896-.374 1.556-.985 1.998-.618.448-1.493.682-2.495.682v.4c1.057 0 2.023-.246 2.73-.758.714-.518 1.15-1.298 1.15-2.322h-.2Zm4.012-8.44v.2h.2v-.2h-.2Zm-2.24 0h-.2v.2h.2v-.2Zm0-2.28v-.2h-.2v.2h.2Zm2.24 0h.2v-.2h-.2v.2Zm0 13.4v.2h.2V50h-.2Zm-2.24 0h-.2v.2h.2V50Zm0-9.74v-.2h-.2v.2h.2Zm2.24 0h.2v-.2h-.2v.2Zm0-1.38v-.2h-2.24v.4h2.24v-.2Zm-2.24 0h.2V36.6h-.4v2.28h.2Zm0-2.28v.2h2.24v-.4h-2.24v.2Zm2.24 0h-.2v2.28h.4V36.6h-.2Zm0 13.4v-.2h-2.24v.4h2.24V50Zm-2.24 0h.2v-9.74h-.4V50h.2Zm0-9.74v.2h2.24v-.4h-2.24v.2Zm2.24 0h-.2V50h.4v-9.74h-.2Zm11.09 3.02.088.18.149-.075-.045-.16-.192.055Zm-2.02 1-.198.031.042.269.244-.12-.088-.18Zm0 1.7.088-.18-.244-.12-.042.269.198.031Zm2.02 1 .192.054.045-.16-.149-.073-.088.179Zm-4.5 3.22V50c-1.401 0-2.525-.491-3.301-1.333-.777-.843-1.219-2.057-1.219-3.527h-.4c0 1.55.467 2.867 1.325 3.798.86.933 2.095 1.462 3.595 1.462v-.2Zm-4.72-5.06h.2c0-1.48.443-2.699 1.22-3.545.775-.844 1.899-1.335 3.3-1.335v-.4c-1.5 0-2.735.529-3.595 1.465-.858.934-1.325 2.256-1.325 3.815h.2Zm4.72-5.08v.2c2.349 0 3.811 1.32 4.307 3.074l.193-.054.192-.054c-.544-1.925-2.162-3.366-4.692-3.366v.2Zm4.5 3.22-.089-.18-2.02 1 .089.18.088.18 2.02-1-.088-.18Zm-2.02 1 .197-.031c-.113-.723-.36-1.353-.793-1.803-.439-.455-1.049-.706-1.844-.706v.4c.704 0 1.204.219 1.556.584.356.37.58.91.686 1.587l.198-.031Zm-2.44-2.34v-.2c-.824 0-1.505.308-1.975.904-.464.59-.705 1.439-.705 2.496h.4c0-1.003.229-1.753.619-2.249.386-.489.945-.751 1.661-.751v-.2Zm-2.48 3.2h-.2c0 1.048.241 1.892.705 2.48.47.592 1.151.9 1.975.9v-.4c-.716 0-1.276-.262-1.661-.75-.39-.492-.619-1.238-.619-2.23h-.2Zm2.48 3.18v.2c.804 0 1.415-.25 1.852-.707.431-.45.672-1.08.785-1.802l-.197-.031-.198-.031c-.106.678-.326 1.218-.679 1.588-.349.364-.848.583-1.563.583v.2Zm2.44-2.34-.089.18 2.02 1 .089-.18.088-.18-2.02-1-.088.18Zm2.02 1-.193-.054c-.496 1.755-1.958 3.074-4.307 3.074v.4c2.53 0 4.148-1.44 4.692-3.366l-.192-.054Z" mask="url(#c)"/>
  <defs>
    <linearGradient id="a" x1="23.794" x2="18.042" y1="46.049" y2=".579" gradientUnits="userSpaceOnUse">
      <stop stop-color="#1A3896"/>
      <stop offset=".518" stop-color="#4D95DE"/>
      <stop offset=".981" stop-color="#BAAFF1"/>
    </linearGradient>
  </defs>
</svg>
