<svg xmlns="http://www.w3.org/2000/svg" width="258" height="100" fill="none" viewBox="0 0 258 100">
  <mask id="a" fill="#fff">
    <path d="M109.288 44.34h-2.712V28.26h2.52l6.504 9.36 1.584 2.52-.168-3.048V28.26h2.712v16.08h-2.496l-6.672-9.504-1.464-2.28.192 2.928v8.856Zm18.546.24c-3.48 0-5.76-2.424-5.76-6.072 0-3.672 2.28-6.096 5.568-6.096 3.504 0 5.448 2.328 5.448 5.568 0 .432-.048.936-.096 1.176h-8.352c.144 2.088 1.368 3.216 3.216 3.216 2.04 0 2.952-1.056 3.384-2.04l1.656 1.728c-.888 1.344-2.472 2.52-5.064 2.52Zm-.192-10.008c-1.656 0-2.76.96-2.976 2.856h6c-.192-1.848-1.248-2.856-3.024-2.856Zm10.54 14.232h-2.688V32.652h2.688v3.12c.384-1.824 1.416-3.384 3.744-3.384 2.832 0 4.656 2.328 4.656 6.096 0 3.768-1.824 6.096-4.704 6.096-2.328 0-3.312-1.56-3.696-3.36v7.584Zm0-9.6c0 1.92.792 3.192 2.688 3.192 1.68 0 2.952-1.272 2.952-3.912 0-2.64-1.272-3.912-2.952-3.912-1.896 0-2.688 1.272-2.688 3.192v1.44Zm14.591 5.4c-2.208 0-3.48-1.392-3.48-3.456V34.74h-1.824v-2.088h1.824v-1.416l2.688-1.704v3.12h3.576v2.088h-3.576v5.76c0 1.272.6 1.584 1.392 1.584.912 0 1.584-.744 1.92-1.416l.84 2.4c-.504.744-1.656 1.536-3.36 1.536Zm9.321-.024c-3.36 0-5.664-2.448-5.664-6.072 0-3.648 2.304-6.096 5.664-6.096 3.408 0 5.712 2.448 5.712 6.096 0 3.624-2.304 6.072-5.712 6.072Zm.024-2.232c1.752 0 2.952-1.152 2.952-3.84 0-2.712-1.2-3.864-2.952-3.864-1.728 0-2.928 1.152-2.928 3.864 0 2.688 1.2 3.84 2.928 3.84Zm10.681 1.992h-2.688V32.652h2.688v3.192c.432-1.848 1.632-3.432 3.96-3.432 2.28 0 3.672 1.368 3.672 3.792v8.136h-2.712v-7.32c0-1.44-.48-2.424-2.28-2.424-1.968 0-2.64 1.272-2.64 3.192v6.552Zm15.528.24c-3.48 0-5.76-2.424-5.76-6.072 0-3.672 2.28-6.096 5.568-6.096 3.504 0 5.448 2.328 5.448 5.568 0 .432-.048.936-.096 1.176h-8.352c.144 2.088 1.368 3.216 3.216 3.216 2.04 0 2.952-1.056 3.384-2.04l1.656 1.728c-.888 1.344-2.472 2.52-5.064 2.52Zm-.192-10.008c-1.656 0-2.76.96-2.976 2.856h6c-.192-1.848-1.248-2.856-3.024-2.856Z"/>
  </mask>
  <path fill="#000" d="M109.288 44.34h-2.712V28.26h2.52l6.504 9.36 1.584 2.52-.168-3.048V28.26h2.712v16.08h-2.496l-6.672-9.504-1.464-2.28.192 2.928v8.856Zm18.546.24c-3.48 0-5.76-2.424-5.76-6.072 0-3.672 2.28-6.096 5.568-6.096 3.504 0 5.448 2.328 5.448 5.568 0 .432-.048.936-.096 1.176h-8.352c.144 2.088 1.368 3.216 3.216 3.216 2.04 0 2.952-1.056 3.384-2.04l1.656 1.728c-.888 1.344-2.472 2.52-5.064 2.52Zm-.192-10.008c-1.656 0-2.76.96-2.976 2.856h6c-.192-1.848-1.248-2.856-3.024-2.856Zm10.54 14.232h-2.688V32.652h2.688v3.12c.384-1.824 1.416-3.384 3.744-3.384 2.832 0 4.656 2.328 4.656 6.096 0 3.768-1.824 6.096-4.704 6.096-2.328 0-3.312-1.56-3.696-3.36v7.584Zm0-9.6c0 1.92.792 3.192 2.688 3.192 1.68 0 2.952-1.272 2.952-3.912 0-2.64-1.272-3.912-2.952-3.912-1.896 0-2.688 1.272-2.688 3.192v1.44Zm14.591 5.4c-2.208 0-3.48-1.392-3.48-3.456V34.74h-1.824v-2.088h1.824v-1.416l2.688-1.704v3.12h3.576v2.088h-3.576v5.76c0 1.272.6 1.584 1.392 1.584.912 0 1.584-.744 1.92-1.416l.84 2.4c-.504.744-1.656 1.536-3.36 1.536Zm9.321-.024c-3.36 0-5.664-2.448-5.664-6.072 0-3.648 2.304-6.096 5.664-6.096 3.408 0 5.712 2.448 5.712 6.096 0 3.624-2.304 6.072-5.712 6.072Zm.024-2.232c1.752 0 2.952-1.152 2.952-3.84 0-2.712-1.2-3.864-2.952-3.864-1.728 0-2.928 1.152-2.928 3.864 0 2.688 1.2 3.84 2.928 3.84Zm10.681 1.992h-2.688V32.652h2.688v3.192c.432-1.848 1.632-3.432 3.96-3.432 2.28 0 3.672 1.368 3.672 3.792v8.136h-2.712v-7.32c0-1.44-.48-2.424-2.28-2.424-1.968 0-2.64 1.272-2.64 3.192v6.552Zm15.528.24c-3.48 0-5.76-2.424-5.76-6.072 0-3.672 2.28-6.096 5.568-6.096 3.504 0 5.448 2.328 5.448 5.568 0 .432-.048.936-.096 1.176h-8.352c.144 2.088 1.368 3.216 3.216 3.216 2.04 0 2.952-1.056 3.384-2.04l1.656 1.728c-.888 1.344-2.472 2.52-5.064 2.52Zm-.192-10.008c-1.656 0-2.76.96-2.976 2.856h6c-.192-1.848-1.248-2.856-3.024-2.856Z"/>
  <path fill="#fff" d="M109.288 44.34v.2h.2v-.2h-.2Zm-2.712 0h-.2v.2h.2v-.2Zm0-16.08v-.2h-.2v.2h.2Zm2.52 0 .164-.114-.059-.086h-.105v.2Zm6.504 9.36.17-.106-.006-.008-.164.114Zm1.584 2.52-.169.107.411.655-.042-.773-.2.011Zm-.168-3.048h-.2v.011l.2-.01Zm0-8.832v-.2h-.2v.2h.2Zm2.712 0h.2v-.2h-.2v.2Zm0 16.08v.2h.2v-.2h-.2Zm-2.496 0-.164.115.06.085h.104v-.2Zm-6.672-9.504-.168.108.004.007.164-.115Zm-1.464-2.28.168-.108-.367.121.199-.013Zm.192 2.928h.201l-.001-.013-.2.013Zm0 8.856v-.2h-2.712v.4h2.712v-.2Zm-2.712 0h.2V28.26h-.4v16.08h.2Zm0-16.08v.2h2.52v-.4h-2.52v.2Zm2.52 0-.164.114 6.504 9.36.164-.114.164-.114-6.504-9.36-.164.114Zm6.504 9.36-.169.107 1.584 2.52.169-.107.17-.106-1.584-2.52-.17.106Zm1.584 2.52.2-.01-.168-3.049-.2.011-.2.011.168 3.048.2-.01Zm-.168-3.048h.2V28.26h-.4v8.832h.2Zm0-8.832v.2h2.712v-.4h-2.712v.2Zm2.712 0h-.2v16.08h.4V28.26h-.2Zm0 16.08v-.2h-2.496v.4h2.496v-.2Zm-2.496 0 .164-.115-6.672-9.504-.164.115-.164.115 6.672 9.504.164-.115Zm-6.672-9.504.168-.108-1.464-2.28-.168.108-.168.108 1.464 2.28.168-.108Zm-1.464-2.28-.199.013.192 2.928.199-.013.2-.013-.192-2.928-.2.013Zm.192 2.928h-.2v8.856h.4v-8.856h-.2Zm23.706 3.672v.2h.164l.032-.16-.196-.04Zm-8.352 0v-.2h-.214l.015.214.199-.014Zm6.6 1.176.145-.138-.207-.216-.121.274.183.08Zm1.656 1.728.167.11.088-.133-.11-.115-.145.138Zm-8.232-4.632-.198-.022-.026.222h.224v-.2Zm6 0v.2h.222l-.023-.22-.199.02Zm-2.832 7.152v-.2c-1.691 0-3.076-.588-4.039-1.605-.964-1.019-1.521-2.484-1.521-4.267h-.4c0 1.866.584 3.436 1.63 4.542 1.047 1.106 2.542 1.73 4.33 1.73v-.2Zm-5.76-6.072h.2c0-1.794.557-3.267 1.498-4.29.941-1.02 2.278-1.606 3.87-1.606v-.4c-1.695 0-3.142.627-4.164 1.736-1.02 1.108-1.604 2.683-1.604 4.56h.2Zm5.568-6.096v.2c1.706 0 3.012.566 3.892 1.506.883.942 1.356 2.282 1.356 3.862h.4c0-1.659-.498-3.104-1.464-4.135-.967-1.034-2.385-1.633-4.184-1.633v.2Zm5.448 5.568h-.2c0 .423-.047.913-.092 1.137l.196.04.196.039c.052-.257.1-.774.1-1.216h-.2Zm-.096 1.176v-.2h-8.352v.4h8.352v-.2Zm-8.352 0-.199.014c.074 1.08.43 1.935 1.029 2.52.599.587 1.421.882 2.386.882v-.4c-.882 0-1.596-.268-2.107-.768-.511-.5-.84-1.253-.909-2.261l-.2.013Zm3.216 3.216v.2c1.057 0 1.837-.274 2.412-.688.574-.414.929-.956 1.156-1.471l-.184-.08-.183-.081c-.206.469-.522.946-1.023 1.307-.498.36-1.194.613-2.178.613v.2Zm3.384-2.04-.144.139 1.656 1.728.144-.139.145-.138-1.656-1.728-.145.138Zm1.656 1.728-.166-.11c-.854 1.292-2.377 2.43-4.898 2.43v.4c2.664 0 4.309-1.213 5.231-2.61l-.167-.11Zm-5.256-7.488v-.2c-.867 0-1.61.253-2.164.771s-.898 1.281-1.01 2.263l.198.022.199.023c.104-.914.419-1.58.886-2.016.465-.435 1.103-.663 1.891-.663v-.2Zm-2.976 2.856v.2h6v-.4h-6v.2Zm6 0 .199-.02c-.099-.957-.425-1.721-.979-2.246-.555-.526-1.317-.79-2.244-.79v.4c.85 0 1.504.24 1.969.68.466.442.764 1.106.856 1.997l.199-.02Zm7.516 11.376v.2h.2v-.2h-.2Zm-2.688 0h-.2v.2h.2v-.2Zm0-16.152v-.2h-.2v.2h.2Zm2.688 0h.2v-.2h-.2v.2Zm0 3.12h-.2l.396.041-.196-.04Zm0 5.448.196-.041-.396.041h.2Zm0 7.584v-.2h-2.688v.4h2.688v-.2Zm-2.688 0h.2V32.652h-.4v16.152h.2Zm0-16.152v.2h2.688v-.4h-2.688v.2Zm2.688 0h-.2v3.12h.4v-3.12h-.2Zm0 3.12.196.041c.187-.89.529-1.696 1.091-2.278.556-.575 1.343-.947 2.457-.947v-.4c-1.214 0-2.107.41-2.745 1.07-.632.654-.998 1.54-1.195 2.473l.196.041Zm3.744-3.384v.2c1.355 0 2.46.554 3.232 1.557.775 1.008 1.224 2.485 1.224 4.34h.4c0-1.914-.463-3.486-1.307-4.584-.849-1.103-2.072-1.713-3.549-1.713v.2Zm4.656 6.096h-.2c0 1.855-.449 3.33-1.23 4.339-.777 1.002-1.894 1.557-3.274 1.557v.4c1.5 0 2.735-.609 3.59-1.712.851-1.098 1.314-2.67 1.314-4.584h-.2Zm-4.704 6.096v-.2c-1.114 0-1.888-.37-2.432-.943-.55-.578-.88-1.378-1.068-2.258l-.196.041-.195.042c.196.92.549 1.8 1.169 2.451.626.658 1.508 1.067 2.722 1.067v-.2Zm-3.696-3.36h-.2v7.584h.4V41.22h-.2Zm0-2.016h-.2c0 .983.202 1.832.675 2.44.481.615 1.216.952 2.213.952v-.4c-.899 0-1.507-.299-1.897-.799-.397-.508-.591-1.255-.591-2.193h-.2Zm2.688 3.192v.2c.894 0 1.692-.34 2.261-1.04.566-.694.891-1.722.891-3.072h-.4c0 1.29-.311 2.218-.801 2.82-.486.597-1.165.892-1.951.892v.2Zm2.952-3.912h.2c0-1.35-.325-2.378-.891-3.072-.569-.699-1.367-1.04-2.261-1.04v.4c.786 0 1.465.296 1.951.893.49.601.801 1.53.801 2.82h.2Zm-2.952-3.912v-.2c-.997 0-1.732.337-2.213.953-.473.607-.675 1.457-.675 2.44h.4c0-.938.194-1.685.591-2.194.39-.5.998-.799 1.897-.799v-.2Zm-2.688 3.192h-.2v1.44h.4v-1.44h-.2Zm11.111-3.024h.2v-.2h-.2v.2Zm-1.824 0h-.2v.2h.2v-.2Zm0-2.088v-.2h-.2v.2h.2Zm1.824 0v.2h.2v-.2h-.2Zm0-1.416-.107-.169-.093.06v.11h.2Zm2.688-1.704h.2v-.363l-.307.194.107.17Zm0 3.12h-.2v.2h.2v-.2Zm3.576 0h.2v-.2h-.2v.2Zm0 2.088v.2h.2v-.2h-.2Zm-3.576 0v-.2h-.2v.2h.2Zm3.312 5.928.189-.066-.157-.446-.211.423.179.09Zm.84 2.4.165.113.057-.084-.033-.095-.189.066Zm-3.36 1.536v-.2c-1.061 0-1.876-.333-2.425-.894-.551-.561-.855-1.37-.855-2.362h-.4c0 1.073.331 1.992.969 2.642.639.652 1.564 1.014 2.711 1.014v-.2Zm-3.48-3.456h.2V34.74h-.4v6.408h.2Zm0-6.408v-.2h-1.824v.4h1.824v-.2Zm-1.824 0h.2v-2.088h-.4v2.088h.2Zm0-2.088v.2h1.824v-.4h-1.824v.2Zm1.824 0h.2v-1.416h-.4v1.416h.2Zm0-1.416.107.17 2.688-1.705-.107-.169-.107-.169-2.688 1.704.107.17Zm2.688-1.704h-.2v3.12h.4v-3.12h-.2Zm0 3.12v.2h3.576v-.4h-3.576v.2Zm3.576 0h-.2v2.088h.4v-2.088h-.2Zm0 2.088v-.2h-3.576v.4h3.576v-.2Zm-3.576 0h-.2v5.76h.4v-5.76h-.2Zm0 5.76h-.2c0 .663.156 1.124.461 1.414.304.29.714.37 1.131.37v-.4c-.375 0-.661-.075-.855-.26-.193-.183-.337-.515-.337-1.124h-.2Zm1.392 1.584v.2c1.027 0 1.751-.83 2.099-1.526l-.179-.09-.179-.09c-.324.65-.944 1.306-1.741 1.306v.2Zm1.92-1.416-.189.066.84 2.4.189-.066.189-.066-.84-2.4-.189.066Zm.84 2.4-.166-.112c-.465.686-1.553 1.448-3.194 1.448v.4c1.767 0 2.982-.822 3.525-1.623l-.165-.113Zm5.961 1.512v-.2c-1.629 0-2.991-.592-3.946-1.613-.956-1.023-1.518-2.49-1.518-4.259h-.4c0 1.855.59 3.424 1.626 4.532 1.037 1.109 2.507 1.74 4.238 1.74v-.2Zm-5.664-6.072h.2c0-1.781.562-3.254 1.518-4.28.955-1.023 2.317-1.616 3.946-1.616v-.4c-1.731 0-3.202.632-4.238 1.744-1.036 1.11-1.626 2.686-1.626 4.552h.2Zm5.664-6.096v.2c1.654 0 3.027.593 3.988 1.617.962 1.025 1.524 2.498 1.524 4.28h.4c0-1.867-.59-3.443-1.632-4.553-1.044-1.113-2.526-1.744-4.28-1.744v.2Zm5.712 6.096h-.2c0 1.77-.562 3.236-1.524 4.258-.961 1.022-2.334 1.614-3.988 1.614v.4c1.754 0 3.236-.63 4.279-1.74 1.043-1.107 1.633-2.677 1.633-4.532h-.2Zm-5.688 3.84v.2c.922 0 1.722-.305 2.287-.984.559-.673.865-1.686.865-3.056h-.4c0 1.318-.295 2.225-.773 2.8-.473.57-1.149.84-1.979.84v.2Zm2.952-3.84h.2c0-1.381-.305-2.4-.865-3.076-.565-.682-1.365-.988-2.287-.988v.4c.829 0 1.505.271 1.979.843.478.578.773 1.491.773 2.821h.2Zm-2.952-3.864v-.2c-.911 0-1.705.306-2.267.988-.556.676-.861 1.695-.861 3.076h.4c0-1.33.295-2.244.77-2.822.471-.572 1.141-.842 1.958-.842v-.2Zm-2.928 3.864h-.2c0 1.37.305 2.383.862 3.056.561.679 1.355.984 2.266.984v-.4c-.817 0-1.487-.27-1.958-.84-.476-.574-.77-1.482-.77-2.8h-.2Zm13.609 5.832v.2h.2v-.2h-.2Zm-2.688 0h-.2v.2h.2v-.2Zm0-11.688v-.2h-.2v.2h.2Zm2.688 0h.2v-.2h-.2v.2Zm0 3.192h-.2l.395.046-.195-.046Zm7.632 8.496v.2h.2v-.2h-.2Zm-2.712 0h-.2v.2h.2v-.2Zm-4.92 0v-.2h-2.688v.4h2.688v-.2Zm-2.688 0h.2V32.652h-.4V44.34h.2Zm0-11.688v.2h2.688v-.4h-2.688v.2Zm2.688 0h-.2v3.192h.4v-3.192h-.2Zm0 3.192.195.046c.21-.899.604-1.718 1.214-2.311.606-.59 1.437-.967 2.551-.967v-.4c-1.214 0-2.146.415-2.83 1.08-.68.66-1.102 1.557-1.324 2.507l.194.045Zm3.96-3.432v.2c1.1 0 1.962.33 2.549.927.587.599.923 1.491.923 2.665h.4c0-1.25-.359-2.253-1.038-2.945-.679-.692-1.654-1.047-2.834-1.047v.2Zm3.672 3.792h-.2v8.136h.4v-8.136h-.2Zm0 8.136v-.2h-2.712v.4h2.712v-.2Zm-2.712 0h.2v-7.32h-.4v7.32h.2Zm0-7.32h.2c0-.734-.121-1.398-.509-1.878-.396-.489-1.035-.746-1.971-.746v.4c.865 0 1.366.235 1.66.598.301.372.42.92.42 1.626h.2Zm-2.28-2.424v-.2c-1.031 0-1.758.336-2.218.957-.452.609-.622 1.459-.622 2.435h.4c0-.943.167-1.69.543-2.196.367-.496.96-.796 1.897-.796v-.2Zm-2.64 3.192h-.2v6.552h.4v-6.552h-.2Zm20.688 1.368v.2h.164l.032-.16-.196-.04Zm-8.352 0v-.2h-.215l.015.214.2-.014Zm6.6 1.176.144-.138-.207-.216-.121.274.184.08Zm1.656 1.728.166.11.089-.133-.111-.115-.144.138Zm-8.232-4.632-.199-.022-.026.222h.225v-.2Zm6 0v.2h.221l-.023-.22-.198.02Zm-2.832 7.152v-.2c-1.692 0-3.077-.588-4.04-1.605-.964-1.019-1.52-2.484-1.52-4.267h-.4c0 1.866.583 3.436 1.629 4.542 1.047 1.106 2.542 1.73 4.331 1.73v-.2Zm-5.76-6.072h.2c0-1.794.556-3.267 1.498-4.29.94-1.02 2.277-1.606 3.87-1.606v-.4c-1.696 0-3.143.627-4.165 1.736-1.02 1.108-1.603 2.683-1.603 4.56h.2Zm5.568-6.096v.2c1.705 0 3.011.566 3.892 1.506.882.942 1.356 2.282 1.356 3.862h.4c0-1.659-.499-3.104-1.464-4.135-.968-1.034-2.386-1.633-4.184-1.633v.2Zm5.448 5.568h-.2c0 .423-.048.913-.093 1.137l.197.04.196.039c.051-.257.1-.774.1-1.216h-.2Zm-.096 1.176v-.2h-8.352v.4h8.352v-.2Zm-8.352 0-.2.014c.075 1.08.43 1.935 1.029 2.52.599.587 1.421.882 2.387.882v-.4c-.883 0-1.597-.268-2.108-.768-.511-.5-.839-1.253-.909-2.261l-.199.013Zm3.216 3.216v.2c1.056 0 1.836-.274 2.411-.688.574-.414.93-.956 1.156-1.471l-.183-.08-.184-.081c-.206.469-.522.946-1.022 1.307-.499.36-1.195.613-2.178.613v.2Zm3.384-2.04-.145.139 1.656 1.728.145-.139.144-.138-1.656-1.728-.144.138Zm1.656 1.728-.167-.11c-.854 1.292-2.377 2.43-4.897 2.43v.4c2.663 0 4.308-1.213 5.23-2.61l-.166-.11Zm-5.256-7.488v-.2c-.868 0-1.611.253-2.165.771s-.898 1.281-1.01 2.263l.199.022.198.023c.104-.914.42-1.58.886-2.016.466-.435 1.103-.663 1.892-.663v-.2Zm-2.976 2.856v.2h6v-.4h-6v.2Zm6 0 .198-.02c-.099-.957-.425-1.721-.979-2.246-.555-.526-1.317-.79-2.243-.79v.4c.849 0 1.503.24 1.968.68.466.442.764 1.106.857 1.997l.199-.02Z" mask="url(#a)"/>
  <mask id="b" fill="#fff">
    <path d="M109.615 68.808h-2.712v-16.08h3.336l3.456 7.056 1.584 4.104 1.608-4.104 3.456-7.056h3.312v16.08h-2.712v-7.56l.336-5.304-1.848 4.608-2.784 5.544h-2.736l-2.784-5.544-1.896-4.608.384 5.304v7.56Zm20.759.24c-2.256 0-3.648-1.368-3.648-3.792V57.12h2.688v7.32c0 1.44.48 2.424 2.28 2.424 1.968 0 2.64-1.272 2.64-3.192V57.12h2.712v11.688h-2.712v-3.192c-.432 1.848-1.632 3.432-3.96 3.432Zm13.951 0c-2.496 0-4.776-1.008-5.664-2.856l1.584-1.68c.648 1.176 2.088 2.376 4.176 2.376 1.152 0 1.896-.408 1.896-1.248 0-.864-.888-1.152-2.184-1.464l-1.56-.384c-1.848-.432-3.552-1.248-3.552-3.384 0-2.184 1.752-3.504 4.44-3.504 2.496 0 4.248 1.2 4.968 2.52l-1.584 1.68c-.816-1.296-2.064-2.064-3.576-2.064-1.032 0-1.728.432-1.728 1.224 0 .84.624 1.152 2.208 1.56l1.416.36c2.616.672 3.576 1.728 3.576 3.408 0 2.304-1.944 3.456-4.416 3.456Zm9.231-13.584h-2.688v-2.736h2.688v2.736Zm0 13.344h-2.688V57.12h2.688v11.688Zm7.907.24c-3.48 0-5.664-2.448-5.664-6.072 0-3.648 2.184-6.096 5.664-6.096 2.928 0 4.776 1.656 5.4 3.864l-2.424 1.2c-.264-1.68-1.128-2.808-2.928-2.808-1.848 0-2.976 1.368-2.976 3.84 0 2.448 1.128 3.816 2.976 3.816 1.824 0 2.664-1.128 2.928-2.808l2.424 1.2c-.624 2.208-2.472 3.864-5.4 3.864Z"/>
  </mask>
  <path fill="#000" d="M109.615 68.808h-2.712v-16.08h3.336l3.456 7.056 1.584 4.104 1.608-4.104 3.456-7.056h3.312v16.08h-2.712v-7.56l.336-5.304-1.848 4.608-2.784 5.544h-2.736l-2.784-5.544-1.896-4.608.384 5.304v7.56Zm20.759.24c-2.256 0-3.648-1.368-3.648-3.792V57.12h2.688v7.32c0 1.44.48 2.424 2.28 2.424 1.968 0 2.64-1.272 2.64-3.192V57.12h2.712v11.688h-2.712v-3.192c-.432 1.848-1.632 3.432-3.96 3.432Zm13.951 0c-2.496 0-4.776-1.008-5.664-2.856l1.584-1.68c.648 1.176 2.088 2.376 4.176 2.376 1.152 0 1.896-.408 1.896-1.248 0-.864-.888-1.152-2.184-1.464l-1.56-.384c-1.848-.432-3.552-1.248-3.552-3.384 0-2.184 1.752-3.504 4.44-3.504 2.496 0 4.248 1.2 4.968 2.52l-1.584 1.68c-.816-1.296-2.064-2.064-3.576-2.064-1.032 0-1.728.432-1.728 1.224 0 .84.624 1.152 2.208 1.56l1.416.36c2.616.672 3.576 1.728 3.576 3.408 0 2.304-1.944 3.456-4.416 3.456Zm9.231-13.584h-2.688v-2.736h2.688v2.736Zm0 13.344h-2.688V57.12h2.688v11.688Zm7.907.24c-3.48 0-5.664-2.448-5.664-6.072 0-3.648 2.184-6.096 5.664-6.096 2.928 0 4.776 1.656 5.4 3.864l-2.424 1.2c-.264-1.68-1.128-2.808-2.928-2.808-1.848 0-2.976 1.368-2.976 3.84 0 2.448 1.128 3.816 2.976 3.816 1.824 0 2.664-1.128 2.928-2.808l2.424 1.2c-.624 2.208-2.472 3.864-5.4 3.864Z"/>
  <path fill="#fff" d="M109.615 68.808v.2h.2v-.2h-.2Zm-2.712 0h-.2v.2h.2v-.2Zm0-16.08v-.2h-.2v.2h.2Zm3.336 0 .18-.088-.055-.112h-.125v.2Zm3.456 7.056.187-.072-.003-.008-.004-.008-.18.088Zm1.584 4.104-.186.072.185.48.188-.479-.187-.073Zm1.608-4.104-.179-.088-.004.008-.003.007.186.073Zm3.456-7.056v-.2h-.124l-.055.112.179.088Zm3.312 0h.2v-.2h-.2v.2Zm0 16.08v.2h.2v-.2h-.2Zm-2.712 0h-.2v.2h.2v-.2Zm0-7.56-.2-.012v.012h.2Zm.336-5.304.2.013-.385-.087.185.074Zm-1.848 4.608.179.09.004-.007.003-.008-.186-.075Zm-2.784 5.544v.2h.124l.055-.11-.179-.09Zm-2.736 0-.178.09.055.11h.123v-.2Zm-2.784-5.544-.185.077.003.006.004.007.178-.09Zm-1.896-4.608.185-.076-.384.09.199-.014Zm.384 5.304h.2v-.014l-.2.014Zm0 7.56v-.2h-2.712v.4h2.712v-.2Zm-2.712 0h.2v-16.08h-.4v16.08h.2Zm0-16.08v.2h3.336v-.4h-3.336v.2Zm3.336 0-.179.088 3.456 7.056.179-.088.18-.088-3.456-7.056-.18.088Zm3.456 7.056-.186.072 1.584 4.104.186-.072.187-.072-1.584-4.104-.187.072Zm1.584 4.104.187.073 1.608-4.104-.187-.073-.186-.073-1.608 4.104.186.073Zm1.608-4.104.18.088 3.456-7.056-.18-.088-.179-.088-3.456 7.056.179.088Zm3.456-7.056v.2h3.312v-.4h-3.312v.2Zm3.312 0h-.2v16.08h.4v-16.08h-.2Zm0 16.08v-.2h-2.712v.4h2.712v-.2Zm-2.712 0h.2v-7.56h-.4v7.56h.2Zm0-7.56.2.013.336-5.304-.2-.013-.199-.012-.336 5.304.199.012Zm.336-5.304-.185-.074-1.848 4.608.185.074.186.075 1.848-4.608-.186-.075Zm-1.848 4.608-.178-.09-2.784 5.545.178.09.179.09 2.784-5.545-.179-.09Zm-2.784 5.544v-.2h-2.736v.4h2.736v-.2Zm-2.736 0 .179-.09-2.784-5.543-.179.09-.178.09 2.784 5.543.178-.09Zm-2.784-5.544.185-.076-1.896-4.608-.185.076-.185.076 1.896 4.608.185-.076Zm-1.896-4.608-.199.015.384 5.304.199-.015.2-.014-.384-5.304-.2.014Zm.384 5.304h-.2v7.56h.4v-7.56h-.2Zm17.111-4.128v-.2h-.2v.2h.2Zm2.688 0h.2v-.2h-.2v.2Zm4.92 0v-.2h-.2v.2h.2Zm2.712 0h.2v-.2h-.2v.2Zm0 11.688v.2h.2v-.2h-.2Zm-2.712 0h-.2v.2h.2v-.2Zm0-3.192h.2l-.395-.045.195.045Zm-3.96 3.432v-.2c-1.087 0-1.943-.328-2.527-.926-.585-.599-.921-1.492-.921-2.666h-.4c0 1.25.359 2.254 1.035 2.945.676.692 1.644 1.047 2.813 1.047v-.2Zm-3.648-3.792h.2V57.12h-.4v8.136h.2Zm0-8.136v.2h2.688v-.4h-2.688v.2Zm2.688 0h-.2v7.32h.4v-7.32h-.2Zm0 7.32h-.2c0 .735.121 1.398.509 1.878.397.49 1.035.746 1.971.746v-.4c-.865 0-1.366-.235-1.66-.597-.301-.372-.42-.921-.42-1.627h-.2Zm2.28 2.424v.2c1.031 0 1.758-.336 2.218-.956.452-.61.622-1.459.622-2.436h-.4c0 .944-.166 1.69-.543 2.197-.367.495-.96.795-1.897.795v.2Zm2.64-3.192h.2V57.12h-.4v6.552h.2Zm0-6.552v.2h2.712v-.4h-2.712v.2Zm2.712 0h-.2v11.688h.4V57.12h-.2Zm0 11.688v-.2h-2.712v.4h2.712v-.2Zm-2.712 0h.2v-3.192h-.4v3.192h.2Zm0-3.192-.195-.045c-.21.898-.603 1.718-1.214 2.31-.606.59-1.437.967-2.551.967v.4c1.214 0 2.146-.414 2.83-1.08.68-.66 1.103-1.556 1.325-2.506l-.195-.046Zm4.327.576-.146-.137-.094.1.06.124.18-.087Zm1.584-1.68.175-.096-.132-.24-.189.2.146.136Zm3.888-.336-.048.195h.001l.047-.195Zm-1.56-.384.048-.194h-.003l-.045.194Zm5.856-4.368.145.138.1-.106-.069-.127-.176.095Zm-1.584 1.68-.169.107.137.218.177-.187-.145-.138Zm-3.096.72-.05.194h.001l.049-.194Zm1.416.36.05-.193h-.001l-.049.193Zm-.84 6.864v-.2c-2.456 0-4.643-.992-5.484-2.742l-.18.086-.18.087c.935 1.945 3.308 2.97 5.844 2.97v-.2Zm-5.664-2.856.145.138 1.584-1.68-.145-.138-.146-.137-1.584 1.68.146.137Zm1.584-1.68-.175.097c.678 1.23 2.18 2.48 4.351 2.48v-.4c-2.005 0-3.383-1.152-4.001-2.273l-.175.096Zm4.176 2.376v.2c.595 0 1.111-.104 1.486-.34.387-.242.61-.617.61-1.108h-.4a.85.85 0 0 1-.422.77c-.285.179-.717.278-1.274.278v.2Zm1.896-1.248h.2c0-.252-.066-.472-.193-.66a1.495 1.495 0 0 0-.514-.452c-.413-.236-.987-.391-1.63-.546l-.047.194-.047.195c.653.157 1.171.301 1.526.504.174.1.299.207.38.328a.75.75 0 0 1 .125.437h.2Zm-2.184-1.464.048-.194-1.56-.384-.048.194-.048.195 1.56.384.048-.195Zm-1.56-.384.045-.194c-.915-.214-1.767-.518-2.389-1.015-.612-.489-1.008-1.17-1.008-2.175h-.4c0 1.132.456 1.926 1.158 2.488.692.553 1.615.873 2.548 1.091l.046-.195Zm-3.552-3.384h.2c0-1.032.411-1.85 1.135-2.413.729-.568 1.791-.89 3.105-.89v-.4c-1.374 0-2.532.337-3.351.975-.824.642-1.289 1.577-1.289 2.728h.2Zm4.44-3.504v.2c2.432 0 4.112 1.168 4.792 2.416l.176-.096.176-.095c-.76-1.393-2.584-2.625-5.144-2.625v.2Zm4.968 2.52-.146-.137-1.584 1.68.146.137.145.138 1.584-1.68-.145-.138Zm-1.584 1.68.169-.106c-.848-1.347-2.156-2.158-3.745-2.158v.4c1.435 0 2.623.726 3.407 1.97l.169-.106Zm-3.576-2.064v-.2c-.54 0-1.016.113-1.364.35-.356.243-.564.61-.564 1.074h.4c0-.328.14-.573.39-.744.258-.176.646-.28 1.138-.28v-.2Zm-1.728 1.224h-.2c0 .236.044.447.146.636.103.19.256.343.454.473.386.255.969.442 1.758.645l.05-.194.05-.193c-.796-.205-1.316-.379-1.638-.592a.935.935 0 0 1-.322-.33.912.912 0 0 1-.098-.445h-.2Zm2.208 1.56-.049.194 1.416.36.049-.194.049-.194-1.416-.36-.049.194Zm1.416.36-.05.194c1.294.333 2.148.753 2.679 1.275.522.514.747 1.143.747 1.94h.4c0-.884-.255-1.623-.867-2.225-.603-.594-1.537-1.038-2.859-1.377l-.05.193Zm3.576 3.408h-.2c0 1.088-.455 1.892-1.198 2.43-.751.544-1.81.826-3.018.826v.4c1.264 0 2.413-.294 3.252-.902.847-.613 1.364-1.537 1.364-2.754h-.2Zm4.815-10.128v.2h.2v-.2h-.2Zm-2.688 0h-.2v.2h.2v-.2Zm0-2.736v-.2h-.2v.2h.2Zm2.688 0h.2v-.2h-.2v.2Zm0 16.08v.2h.2v-.2h-.2Zm-2.688 0h-.2v.2h.2v-.2Zm0-11.688v-.2h-.2v.2h.2Zm2.688 0h.2v-.2h-.2v.2Zm0-1.656v-.2h-2.688v.4h2.688v-.2Zm-2.688 0h.2v-2.736h-.4v2.736h.2Zm0-2.736v.2h2.688v-.4h-2.688v.2Zm2.688 0h-.2v2.736h.4v-2.736h-.2Zm0 16.08v-.2h-2.688v.4h2.688v-.2Zm-2.688 0h.2V57.12h-.4v11.688h.2Zm0-11.688v.2h2.688v-.4h-2.688v.2Zm2.688 0h-.2v11.688h.4V57.12h-.2Zm13.307 3.624.089.18.149-.074-.045-.16-.193.054Zm-2.424 1.2-.197.031.042.27.244-.121-.089-.18Zm0 2.04.089-.179-.244-.12-.042.268.197.031Zm2.424 1.2.193.055.045-.16-.149-.074-.089.18Zm-5.4 3.864v-.2c-1.69 0-3.051-.593-3.989-1.612-.941-1.021-1.475-2.487-1.475-4.26h-.4c0 1.852.559 3.422 1.58 4.53 1.023 1.112 2.495 1.742 4.284 1.742v-.2Zm-5.664-6.072h.2c0-1.784.534-3.256 1.475-4.28.939-1.022 2.299-1.616 3.989-1.616v-.4c-1.789 0-3.261.631-4.284 1.745-1.021 1.112-1.58 2.688-1.58 4.551h.2Zm5.664-6.096v.2c2.838 0 4.608 1.596 5.208 3.719l.192-.055.193-.054c-.648-2.293-2.574-4.01-5.593-4.01v.2Zm5.4 3.864-.088-.179-2.424 1.2.088.18.089.179 2.424-1.2-.089-.18Zm-2.424 1.2.198-.03c-.136-.864-.429-1.61-.942-2.142-.517-.538-1.238-.836-2.184-.836v.4c.855 0 1.466.266 1.896.713.436.452.706 1.11.835 1.926l.197-.03Zm-2.928-2.808v-.2c-.978 0-1.783.365-2.338 1.07-.55.698-.838 1.707-.838 2.97h.4c0-1.209.277-2.119.752-2.723.471-.597 1.155-.917 2.024-.917v-.2Zm-2.976 3.84h-.2c0 1.252.288 2.255.839 2.95.555.702 1.359 1.066 2.337 1.066v-.4c-.87 0-1.553-.319-2.024-.914-.476-.6-.752-1.505-.752-2.702h-.2Zm2.976 3.816v.2c.957 0 1.679-.297 2.194-.835.51-.533.796-1.28.932-2.142l-.198-.03-.197-.032c-.129.818-.394 1.475-.826 1.927-.427.446-1.037.712-1.905.712v.2Zm2.928-2.808-.088.18 2.424 1.2.088-.18.089-.179-2.424-1.2-.089.18Zm2.424 1.2-.192-.054c-.6 2.123-2.37 3.718-5.208 3.718v.4c3.019 0 4.945-1.716 5.593-4.01l-.193-.054Z" mask="url(#b)"/>
  <circle cx="50" cy="50" r="37.431" fill="url(#c)" transform="rotate(-25.827 50 50)"/>
  <g filter="url(#d)">
    <circle cx="67.898" cy="48.765" r="3.902" fill="#fff"/>
  </g>
  <defs>
    <linearGradient id="c" x1="53.245" x2="43.427" y1="91.224" y2="13.556" gradientUnits="userSpaceOnUse">
      <stop offset=".108" stop-color="#1A3896"/>
      <stop offset=".334" stop-color="#4D95DE"/>
      <stop offset=".596" stop-color="#BDC4D2"/>
      <stop offset=".829" stop-color="#6E85CA"/>
    </linearGradient>
    <filter id="d" width="10.805" height="8.805" x="63.996" y="44.862" color-interpolation-filters="sRGB" filterUnits="userSpaceOnUse">
      <feFlood flood-opacity="0" result="BackgroundImageFix"/>
      <feBlend in="SourceGraphic" in2="BackgroundImageFix" result="shape"/>
      <feColorMatrix in="SourceAlpha" result="hardAlpha" values="0 0 0 0 0 0 0 0 0 0 0 0 0 0 0 0 0 0 127 0"/>
      <feMorphology in="SourceAlpha" operator="dilate" radius="1" result="effect1_innerShadow_83_325"/>
      <feOffset dx="4" dy="1"/>
      <feGaussianBlur stdDeviation="2"/>
      <feComposite in2="hardAlpha" k2="-1" k3="1" operator="arithmetic"/>
      <feColorMatrix values="0 0 0 0 0.894118 0 0 0 0 0.776471 0 0 0 0 0.733333 0 0 0 1 0"/>
      <feBlend in2="shape" result="effect1_innerShadow_83_325"/>
    </filter>
  </defs>
</svg>
