<svg width="158" height="62" viewBox="0 0 158 62" fill="none" xmlns="http://www.w3.org/2000/svg">
<ellipse cx="23.0173" cy="23.1631" rx="23.0173" ry="23.1631" transform="matrix(0.898358 -0.439263 0.432075 0.901838 0 20.2212)" fill="url(#paint0_linear_89_472)"/>
<g filter="url(#filter0_i_89_472)">
<ellipse cx="41.6703" cy="30.2342" rx="2.39496" ry="2.41947" fill="white"/>
</g>
<path d="M122.254 27.6295C119.774 27.6295 118.149 25.9022 118.149 23.3027C118.149 20.6861 119.774 18.9587 122.117 18.9587C124.614 18.9587 125.999 20.6176 125.999 22.9264C125.999 23.2343 125.965 23.5934 125.931 23.7644H119.979C120.082 25.2523 120.954 26.0561 122.271 26.0561C123.725 26.0561 124.375 25.3036 124.682 24.6024L125.862 25.8338C125.23 26.7915 124.101 27.6295 122.254 27.6295ZM122.117 20.4979C120.937 20.4979 120.15 21.182 119.996 22.5331H124.272C124.135 21.2162 123.383 20.4979 122.117 20.4979Z" fill="white"/>
<path d="M111.19 27.4585H109.274V19.1298H111.19V21.4043C111.498 20.0875 112.353 18.9587 114.012 18.9587C115.636 18.9587 116.628 19.9336 116.628 21.6609V27.4585H114.696V22.2423C114.696 21.2162 114.354 20.515 113.071 20.515C111.669 20.515 111.19 21.4214 111.19 22.7896V27.4585Z" fill="white"/>
<path d="M103.561 27.6295C101.167 27.6295 99.5254 25.8851 99.5254 23.3027C99.5254 20.7032 101.167 18.9587 103.561 18.9587C105.99 18.9587 107.632 20.7032 107.632 23.3027C107.632 25.8851 105.99 27.6295 103.561 27.6295ZM103.579 26.039C104.827 26.039 105.682 25.2181 105.682 23.3027C105.682 21.3701 104.827 20.5492 103.579 20.5492C102.347 20.5492 101.492 21.3701 101.492 23.3027C101.492 25.2181 102.347 26.039 103.579 26.039Z" fill="white"/>
<path d="M96.9192 27.6466C95.3458 27.6466 94.4394 26.6547 94.4394 25.1839V20.6177H93.1396V19.1298H94.4394V18.1207L96.3548 16.9065V19.1298H98.9031V20.6177H96.3548V24.7222C96.3548 25.6286 96.7824 25.8509 97.3468 25.8509C97.9966 25.8509 98.4755 25.3207 98.7149 24.8419L99.3135 26.5521C98.9544 27.0822 98.1335 27.6466 96.9192 27.6466Z" fill="white"/>
<path d="M86.5219 30.6395H84.6064V19.1298H86.5219V21.353C86.7955 20.0533 87.5309 18.9417 89.1898 18.9417C91.2079 18.9417 92.5076 20.6006 92.5076 23.2856C92.5076 25.9706 91.2079 27.6295 89.1556 27.6295C87.4967 27.6295 86.7955 26.5179 86.5219 25.2352V30.6395ZM86.5219 23.7986C86.5219 25.1668 87.0863 26.0732 88.4373 26.0732C89.6345 26.0732 90.5409 25.1668 90.5409 23.2856C90.5409 21.4044 89.6345 20.4979 88.4373 20.4979C87.0863 20.4979 86.5219 21.4044 86.5219 22.7725V23.7986Z" fill="white"/>
<path d="M79.1485 27.6295C76.6686 27.6295 75.0439 25.9022 75.0439 23.3027C75.0439 20.6861 76.6686 18.9587 79.0116 18.9587C81.5085 18.9587 82.8938 20.6176 82.8938 22.9264C82.8938 23.2343 82.8596 23.5934 82.8254 23.7644H76.8739C76.9765 25.2523 77.8487 26.0561 79.1656 26.0561C80.6192 26.0561 81.2691 25.3036 81.5769 24.6024L82.757 25.8338C82.1242 26.7915 80.9955 27.6295 79.1485 27.6295ZM79.0116 20.4979C77.8316 20.4979 77.0449 21.182 76.891 22.5331H81.1665C81.0297 21.2162 80.2772 20.4979 79.0116 20.4979Z" fill="white"/>
<path d="M65.9325 27.4584H64V16H65.7957L70.4304 22.6698L71.5591 24.4655L71.4394 22.2936V16H73.372V27.4584H71.5933L66.8389 20.686L65.7957 19.0613L65.9325 21.1477V27.4584Z" fill="white"/>
<path d="M103.105 45.0653C100.626 45.0653 99.0693 43.3209 99.0693 40.7385C99.0693 38.1389 100.626 36.3945 103.105 36.3945C105.192 36.3945 106.509 37.5746 106.953 39.148L105.226 40.0031C105.038 38.8059 104.422 38.0021 103.14 38.0021C101.823 38.0021 101.019 38.9769 101.019 40.7385C101.019 42.4829 101.823 43.4577 103.14 43.4577C104.439 43.4577 105.038 42.6539 105.226 41.4568L106.953 42.3119C106.509 43.8853 105.192 45.0653 103.105 45.0653Z" fill="white"/>
<path d="M97.4701 35.3854H95.5547V33.4358H97.4701V35.3854ZM97.4701 44.8942H95.5547V36.5655H97.4701V44.8942Z" fill="white"/>
<path d="M90.8925 45.0653C89.1139 45.0653 87.4892 44.347 86.8564 43.0301L87.9852 41.833C88.4469 42.671 89.4731 43.5261 90.9609 43.5261C91.7819 43.5261 92.312 43.2354 92.312 42.6368C92.312 42.0211 91.6792 41.8159 90.7557 41.5936L89.6441 41.3199C88.3272 41.0121 87.113 40.4306 87.113 38.9085C87.113 37.3522 88.3614 36.4116 90.2769 36.4116C92.0555 36.4116 93.3039 37.2667 93.817 38.2073L92.6883 39.4045C92.1068 38.481 91.2175 37.9337 90.1401 37.9337C89.4047 37.9337 88.9087 38.2415 88.9087 38.8059C88.9087 39.4045 89.3534 39.6268 90.4821 39.9176L91.4911 40.1741C93.3552 40.6529 94.0393 41.4054 94.0393 42.6026C94.0393 44.2444 92.6541 45.0653 90.8925 45.0653Z" fill="white"/>
<path d="M80.9511 45.0652C79.3435 45.0652 78.3516 44.0904 78.3516 42.363V36.5654H80.267V41.7816C80.267 42.8077 80.609 43.5089 81.8917 43.5089C83.2941 43.5089 83.7729 42.6025 83.7729 41.2343V36.5654H85.7055V44.8942H83.7729V42.6196C83.4651 43.9364 82.61 45.0652 80.9511 45.0652Z" fill="white"/>
<path d="M66.1591 44.8942H64.2266V33.4358H66.6038L69.0665 38.4638L70.1952 41.3883L71.341 38.4638L73.8037 33.4358H76.1638V44.8942H74.2313V39.507L74.4707 35.7275L73.1539 39.0111L71.17 42.9617H69.2204L67.2365 39.0111L65.8855 35.7275L66.1591 39.507V44.8942Z" fill="white"/>
<defs>
<filter id="filter0_i_89_472" x="39.2754" y="27.8147" width="7.79004" height="5.83887" filterUnits="userSpaceOnUse" color-interpolation-filters="sRGB">
<feFlood flood-opacity="0" result="BackgroundImageFix"/>
<feBlend mode="normal" in="SourceGraphic" in2="BackgroundImageFix" result="shape"/>
<feColorMatrix in="SourceAlpha" type="matrix" values="0 0 0 0 0 0 0 0 0 0 0 0 0 0 0 0 0 0 127 0" result="hardAlpha"/>
<feMorphology radius="1" operator="dilate" in="SourceAlpha" result="effect1_innerShadow_89_472"/>
<feOffset dx="4" dy="1"/>
<feGaussianBlur stdDeviation="2"/>
<feComposite in2="hardAlpha" operator="arithmetic" k2="-1" k3="1"/>
<feColorMatrix type="matrix" values="0 0 0 0 0.894118 0 0 0 0 0.776471 0 0 0 0 0.733333 0 0 0 1 0"/>
<feBlend mode="normal" in2="shape" result="effect1_innerShadow_89_472"/>
</filter>
<linearGradient id="paint0_linear_89_472" x1="25.0124" y1="48.6731" x2="18.9" y2="0.62081" gradientUnits="userSpaceOnUse">
<stop offset="0.10777" stop-color="#1A3896"/>
<stop offset="0.333894" stop-color="#4D95DE"/>
<stop offset="0.595507" stop-color="#BDC4D2"/>
<stop offset="0.829" stop-color="#6E85CA"/>
</linearGradient>
</defs>
</svg>
